<svg xmlns="http://www.w3.org/2000/svg" width="84.933" height="84.934" viewBox="0 0 84.933 84.934"><g id="noun-innovating-2287064" transform="translate(-70)"><path id="Path_45402" data-name="Path 45402" d="M292.445 508.834a1.336 1.336.0 00-1.334-1.334H272.534a1.334 1.334.0 000 2.669H291.11A1.356 1.356.0 00292.445 508.834z" transform="translate(-170.69 -430.543)" fill="#0391fd"/><path id="Path_45403" data-name="Path 45403" d="M290.034 542.5a1.334 1.334.0 100 2.669H303.3a1.334 1.334.0 100-2.669z" transform="translate(-185.536 -460.235)" fill="#0391fd"/><path id="Path_45404" data-name="Path 45404" d="M240.172 158.066h1.85a3.028 3.028.0 002.2-.834 3.092 3.092.0 00.971-2.138v-1.319a14.017 14.017.0 002.654-1.107l.94.94h0a3.077 3.077.0 004.337-.152l1.3-1.3h0a3.121 3.121.0 00.97-2.138 3.079 3.079.0 00-.819-2.2l-.94-.94a15.087 15.087.0 001.107-2.654h1.319a3.082 3.082.0 002.972-3.169V139.2a3.028 3.028.0 00-.834-2.2 3.092 3.092.0 00-2.138-.97h-1.319a14.445 14.445.0 00-1.107-2.654l.94-.94a3.092 3.092.0 00.834-2.2 3.03 3.03.0 00-.97-2.138l-1.3-1.3a3.121 3.121.0 00-2.138-.97 3.079 3.079.0 00-2.2.819l-.94.94a15.082 15.082.0 00-2.654-1.107v-1.319a3.082 3.082.0 00-3.169-2.972h-1.85a3.028 3.028.0 00-2.2.834 3.092 3.092.0 00-.97 2.138v1.319a14.017 14.017.0 00-2.654 1.107l-.94-.94a3.015 3.015.0 00-2.2-.819 3.092 3.092.0 00-2.138.97l-1.3 1.3a3.189 3.189.0 00-.97 2.29 2.828 2.828.0 00.834 2.047l.94.94a15.081 15.081.0 00-1.107 2.654h-1.319a3.082 3.082.0 00-2.972 3.169v1.85a3.028 3.028.0 00.834 2.2 3.092 3.092.0 002.138.97h1.319a14.442 14.442.0 001.107 2.654l-.94.94a3.038 3.038.0 00-.819 2.2 3.092 3.092.0 00.97 2.138l1.3 1.3h0a3.042 3.042.0 002.138.955 3.079 3.079.0 002.2-.819l.94-.94a15.081 15.081.0 002.654 1.107v1.319a3.092 3.092.0 00.97 2.138 2.925 2.925.0 002.168.849zm-6.05-17.924a6.989 6.989.0 112.047 4.928A7.006 7.006.0 01234.122 140.143z" transform="translate(-129.957 -103.658)" fill="#0391fd"/><path id="Path_45405" data-name="Path 45405" d="M341.3 1.334V5.307a1.334 1.334.0 102.669.0V1.334a1.334 1.334.0 10-2.669.0z" transform="translate(-230.16)" fill="#0391fd"/><path id="Path_45406" data-name="Path 45406" d="M238.34 20.759a1.364 1.364.0 00-.713.713 1.312 1.312.0 000 1.016l1.516 3.685a1.322 1.322.0 102.441-1.016l-1.516-3.685a1.313 1.313.0 00-.713-.713 1.383 1.383.0 00-1.016.0z" transform="translate(-142.122 -17.529)" fill="#0391fd"/><path id="Path_45407" data-name="Path 45407" d="M153.6 84.917a1.336 1.336.0 001.228-.819 1.3 1.3.0 00-.288-1.441l-2.821-2.821a1.33 1.33.0 00-1.88 1.88l2.82 2.82a1.317 1.317.0 00.94.379z" transform="translate(-67.402 -67.402)" fill="#0391fd"/><path id="Path_45408" data-name="Path 45408" d="M96.167 169.17l-3.685-1.516a1.322 1.322.0 10-1.016 2.441l3.685 1.516a1.322 1.322.0 101.016-2.441z" transform="translate(-17.523 -142.148)" fill="#0391fd"/><path id="Path_45409" data-name="Path 45409" d="M71.334 273.869h3.973a1.334 1.334.0 100-2.669H71.334a1.334 1.334.0 100 2.669z" transform="translate(0 -230.075)" fill="#0391fd"/><path id="Path_45410" data-name="Path 45410" d="M95.1 365.106l-3.685 1.516a1.322 1.322.0 001.016 2.441l3.685-1.516a1.322 1.322.0 10-1.016-2.441z" transform="translate(-17.476 -309.651)" fill="#0391fd"/><path id="Path_45411" data-name="Path 45411" d="M149.794 449.538a1.358 1.358.0 00.94.394 1.321 1.321.0 00.94-.394l2.821-2.821a1.33 1.33.0 10-1.88-1.88l-2.821 2.82a1.318 1.318.0 000 1.88z" transform="translate(-67.36 -377.054)" fill="#0391fd"/><path id="Path_45412" data-name="Path 45412" d="M516.717 444.837a1.33 1.33.0 00-1.88 1.88l2.82 2.821a1.33 1.33.0 001.88-1.88z" transform="translate(-377.054 -377.054)" fill="#0391fd"/><path id="Path_45413" data-name="Path 45413" d="M567.727 365.819a1.312 1.312.0 000 1.016 1.364 1.364.0 00.713.713l3.685 1.516a1.322 1.322.0 101.016-2.441l-3.685-1.516a1.3 1.3.0 00-1.729.713z" transform="translate(-422.165 -309.651)" fill="#0391fd"/><path id="Path_45414" data-name="Path 45414" d="M591.523 271.3h-3.988a1.334 1.334.0 000 2.669h3.988a1.334 1.334.0 000-2.669z" transform="translate(-437.924 -230.16)" fill="#0391fd"/><path id="Path_45415" data-name="Path 45415" d="M573.832 168.34a1.364 1.364.0 00-.713-.713 1.311 1.311.0 00-1.016.0l-3.685 1.516a1.322 1.322.0 101.016 2.441l3.685-1.516a1.364 1.364.0 00.713-.713 1.312 1.312.0 000-1.016z" transform="translate(-422.144 -142.122)" fill="#0391fd"/><path id="Path_45416" data-name="Path 45416" d="M519.5 79.794a1.358 1.358.0 00-.94-.394 1.32 1.32.0 00-.94.394l-2.82 2.82a1.358 1.358.0 00-.394.94 1.33 1.33.0 002.275.94l2.82-2.821a1.318 1.318.0 000-1.88z" transform="translate(-377.011 -67.36)" fill="#0391fd"/><path id="Path_45417" data-name="Path 45417" d="M436.634 21.519 435.118 25.2a1.322 1.322.0 002.441 1.016l1.516-3.685a1.322 1.322.0 10-2.441-1.016z" transform="translate(-309.663 -17.561)" fill="#0391fd"/><path id="Path_45418" data-name="Path 45418" d="M198.852 114.567c.849-2.669 1.38-2.805 1.471-2.805h5.4a5.111 5.111.0 003.912-1.365c2.047-1.986 2-5.338 1.986-5.717h0a1.287 1.287.0 00-.212-.667 2.179 2.179.0 01-.394-1.744l1.289-1.532a1.327 1.327.0 00-.121-1.835 5.545 5.545.0 01-.425-.425 2.641 2.641.0 00.895-1.683 1.937 1.937.0 00-.349-1.319l-.834-1.5a1.064 1.064.0 01-.015-.379.752.752.0 01.394-.121 1.263 1.263.0 00.334-.045c2.047-.531 3.215-1.38 3.564-2.578a2.629 2.629.0 00-.546-2.4l-5.959-8.522a6.866 6.866.0 01-.864-2.411l-.03-.106c-.091-.364-.182-.728-.288-1.077-3.366-11.782-16-16.3-26.719-14.694A28.076 28.076.0 00157.5 89.167a29.675 29.675.0 007.188 19.031c6.126 7.112 6.49 9.174 7.476 14.648l.182.986a2.744 2.744.0 002.623 2.517h11.722a1.336 1.336.0 001.334-1.334v-14.6a1.334 1.334.0 10-2.669.0V123.68h-10.3a1.478 1.478.0 01-.121-.334l-.182-.97c-1.016-5.656-1.486-8.234-8.082-15.907h0a26.987 26.987.0 01-6.536-17.3 25.4 25.4.0 0121.578-24.9c9.568-1.441 20.835 2.5 23.823 12.814.091.318.182.637.243.955l.03.106a9.33 9.33.0 001.274 3.321l6 8.583a.848.848.0 01.076.121 3.632 3.632.0 01-1.5.667 3.34 3.34.0 00-2.29 1.137 3.1 3.1.0 00-.425 2.805 1.808 1.808.0 00.121.3l.834 1.5h0a3.4 3.4.0 01-.516.409 1.19 1.19.0 00-.364.364c-.47.713-.318 1.577.485 2.563l-.652.773h0a1.076 1.076.0 00-.152.212 4.313 4.313.0 00.243 4.155 5.5 5.5.0 01-1.183 3.427 2.458 2.458.0 01-1.941.622h-5.5c-2.517.0-3.518 3.139-4 4.64l-.061.167a25.269 25.269.0 00-1 9.75H192.65a1.334 1.334.0 100 2.669h3.321a1.856 1.856.0 001.41-.652 2.2 2.2.0 00.561-1.683 22.8 22.8.0 01.819-9.265z" transform="translate(-74.232 -52.031)" fill="#0391fd"/></g></svg>