<svg xmlns="http://www.w3.org/2000/svg" width="46" height="61.778" viewBox="0 0 46 61.778"><g transform="translate(0.5 0.5)"><path d="M9.182 60.776A5.279 5.279.0 015.341 59.35a5.288 5.288.0 01-1.427-3.843q0-1.237.0-2.475v-.015c0-3.059.0-6.221.014-9.331.0-.251-.032-.387-.113-.468a.454.454.0 00-.342-.1c-.034.0-.071.0-.109.0-.25.016-.521.023-.854.023-.209.0-.423.0-.629-.006h-.02c-.2.0-.389-.006-.573-.006C.325 43.129.0 42.806.0 41.852q0-7.444.0-14.885V12.143c0-1.052.3-1.357 1.329-1.358.2.0.407-.005.575-.009h.005c.2-.005.4-.009.6-.009.3.0.548.01.777.033a1.554 1.554.0 00.157.009A.484.484.0 003.8 10.7a.792.792.0 00.122-.569C3.9 8.764 3.905 7.379 3.911 6.039V6.022q0-.459.0-.918A5.167 5.167.0 015.34 1.437 5.073 5.073.0 018.982.0C13.3.0 17.85.0 22.49.0S31.676.0 36 0a4.882 4.882.0 015.087 5.083v.252c.006 1.626.011 3.3-.009 4.955a.555.555.0 00.1.409.433.433.0 00.324.094h.077c.263-.012.549-.018.9-.018.224.0.452.0.653.0s.392.0.587.0c.961.0 1.284.327 1.284 1.281q0 6.891.0 13.782V41.773c0 1.053-.3 1.358-1.33 1.36-.173.0-.346.0-.537.006-.176.0-.395.007-.6.007-.294.0-.534-.007-.756-.023-.058.0-.109-.006-.157-.006a.544.544.0 00-.409.121.76.76.0 00-.138.554c.023 3.028.02 6.1.017 9.079q0 1.312.0 2.621a5.313 5.313.0 01-1.423 3.853 5.251 5.251.0 01-3.832 1.431H22.514zm-3.222-9.7a.6.6.0 00-.1.448c.022.89.018 1.795.015 2.67v.01c0 .48.0 1.024.0 1.546A2.925 2.925.0 008.9 58.813c4.414.0 8.99.006 13.6.006s9.188.0 13.6-.006a2.923 2.923.0 003.027-3.059c0-.49.0-.988.0-1.47V54.26c0-.876-.008-1.782.018-2.672a.673.673.0 00-.112-.5.655.655.0 00-.491-.125h-.023c-3.238.013-6.384.015-9.034.015h-12.6c-3.284.0-6.824.0-10.459-.012h-.01C6.169 50.964 6.037 51 5.959 51.077zm32.68-2.054c.216.0.333-.029.4-.1a.537.537.0 00.1-.4c-.02-1.316-.037-3.049.0-4.777a.67.67.0 00-.114-.5c-.087-.089-.231-.125-.5-.125h-.014c-3.24.013-6.386.015-9.034.015H16.065c-2.845.0-6.215.0-9.643-.013H6.413c-.242.0-.373.033-.452.112s-.109.211-.1.451c.029 1.453.03 3.035.0 4.839a.538.538.0 00.1.4.539.539.0 00.4.1c5.333.0 10.764-.008 16.143-.008S33.31 49.018 38.639 49.023zm3.792-7.839h.01c.266.0.408-.035.495-.122a.7.7.0 00.121-.5c-.021-6.344-.021-12.857.0-19.359.0-.271-.034-.417-.121-.5a.677.677.0 00-.494-.122h-.009c-4.176.013-8.274.015-11.731.015H14.3c-3.458.0-7.555.0-11.732-.015H2.56a.674.674.0 00-.494.122c-.087.088-.122.234-.122.5.02 6.423.02 12.936.0 19.358.0.271.034.418.121.5a.673.673.0 00.493.121h.01c6.65-.007 13.356-.011 19.931-.011S35.782 41.177 42.431 41.184zM2.044 12.839a.534.534.0 00-.1.4c.019 1.316.037 3.049.0 4.778a.672.672.0 00.114.5c.087.089.233.125.5.125h.01c4.134-.012 8.218-.013 11.667-.013h15.9c3.654.0 7.981.0 12.351.012H42.5c.244.0.376-.033.455-.112a.607.607.0 00.1-.452c-.028-1.454-.029-3.036.0-4.838a.534.534.0 00-.1-.4.547.547.0 00-.405-.1c-6.705.006-13.452.008-20.053.008s-13.347.0-20.052-.008A.542.542.0 002.044 12.839zM8.9 1.965a2.923 2.923.0 00-3.025 3.06c0 .613.0 1.235.0 1.836v.012c0 1.081.007 2.2-.017 3.3a.674.674.0 00.115.5c.087.088.233.124.5.124h.009c3.278-.012 6.473-.015 9.166-.015h13.7c2.731.0 5.963.0 9.23.012h.014c.239.0.369-.032.446-.111s.11-.21.106-.451c-.02-1.093-.018-2.2-.015-3.278v-.02c0-.593.0-1.265.0-1.909A2.925 2.925.0 0036.1 1.965c-4.286.0-8.863.0-13.6.0s-9.317-.002-13.6.0zm13.55 55.87a2.827 2.827.0 01-.452-.042h-.013-.013a2.963 2.963.0 01-2.388-2.617h0v-.028s0-.008.0-.012.0-.01.0-.015q-.007-.1-.008-.2c0-.012.0-.025.0-.037.0-.063.0-.125.008-.187a2.949 2.949.0 012.525-2.7 2.919 2.919.0 01.408-.029h.041a2.865 2.865.0 01.653.085h.006l.026.007.023.006h.009a2.954 2.954.0 012.163 2.82c0 .012.0.025.0.038a2.948 2.948.0 01-2.951 2.918zm.048-1.962H22.5a.983.983.0 00.961-.822.993.993.0 00.012-.135v-.025a.987.987.0 00-.615-.9h-.006l-.013-.005a.952.952.0 00-.3-.061.982.982.0 00-1.011.988.967.967.0 00.059.327.986.986.0 00.657.605A.972.972.0 0022.494 55.873zm7.929.0a1.45 1.45.0 01-.207-.016h0-.024-.006-.021-.009-.018-.012-.014-.014-.011-.017-.008l-.019-.006h-.005l-.021-.007h0l-.022-.008h0l-.023-.009h0a1.033 1.033.0 01-.2-.1h0l-.019-.013h0l-.017-.012-.015-.011h-.005l-.013-.01-.007-.006-.011-.009-.009-.008-.008-.007-.012-.011-.014-.014a.9.9.0 01-.258-.524 1.135 1.135.0 01-.01-.142v0a.147.147.0 010-.025.986.986.0 011.1-.963c.214.0.443.0.72.0h2.219c.277.0.506.0.719.0a1.594 1.594.0 01.246.023.943.943.0 01.849.827 1 1 0 01.008.113c0 .009.0.018.0.027s0 .029.0.043a.938.938.0 01-.175.515l-.005.007-.009.012-.009.012v.006L35 55.516v0a1.006 1.006.0 01-.546.319h0l-.023.005h-.006-.02-.011-.015-.015-.012-.021-.006-.028.0a1.489 1.489.0 01-.15.009c-.627.007-1.253.009-1.858.009S31.051 55.879 30.423 55.872zm-17.767.005h-.424c-.448.0-.9.0-1.343.0a1.422 1.422.0 01-.541-.108.9.9.0 01-.563-.856v-.027a.933.933.0 01.2-.594L10 54.282V54.273l.013-.015h0a.986.986.0 01.453-.28h0l.018-.005h.016.007a1.4 1.4.0 01.343-.045c.537.0 1.082-.007 1.625-.008h.233c.619.0 1.244.0 1.858.008a1.356 1.356.0 01.421.068h0l.02.007h.009l.014.005.013.005h.01l.016.007h.006l.019.008h0l.021.01h0a.972.972.0 01.2.133h0l.017.015h0l.015.014.013.013.012.012.006.006.01.011.008.009.008.009.009.011.006.007.01.013v.005l.011.015.013.018h0a.891.891.0 01.114.231v.006.01.014h0a1.006 1.006.0 01.038.277c0 .009.0.018.0.027a.99.99.0 01-1.1.963c-.282.0-.564.005-.846.005zm6.54-17.73-.019-.008-.022-.01h-.006l-.017-.008-.02-.01h-.007l-.013-.007-.009-.005-.009-.005-.024-.014h0l-.015-.009h0a.894.894.0 01-.411-.551v0-.011-.012-.006-.021.0-.022h0a.963.963.0 01-.01-.144 1.235 1.235.0 01.1-.472q.162-.389.327-.779l.057-.134v-.007q.427-1.01.861-2.016l.007-.017q.281-.654.561-1.31l.932-2.186.435-1.021L22 29.06l.384-.9 1.273-2.984.705-1.652.022-.052a2.576 2.576.0 01.246-.492l.009-.013h0a.988.988.0 01.51-.385h.009.0a.841.841.0 01.233-.033.95.95.0 01.144.011 1.141 1.141.0 01.16.037.978.978.0 01.709.956c0 .028.0.057.006.086h0c-.05.139-.12.349-.206.554L23.1 31.465l-.665 1.556-1.83 4.289c-.039.093-.076.188-.122.277a1.133 1.133.0 01-.625.6.837.837.0 01-.272.046A.975.975.0 0119.2 38.148zm9.745-2.482a1.075 1.075.0 01-.079-.268.007.007.0 000 0v-.017a.9.9.0 01-.007-.1.806.806.0 01.005-.1c0-.006.0-.011.0-.017h0a1.078 1.078.0 01.329-.608c.492-.5.988-.988 1.482-1.482.409-.409.825-.827 1.232-1.248a4.192 4.192.0 01.383-.338c.1-.079.2-.157.294-.236a1.454 1.454.0 00.591-.765h0v-.014-.006s0-.005.0-.008.0-.022.0-.032v0c0-.008.0-.017.0-.025v-.008c0-.006.0-.012.0-.018-.016-.344-.415-.675-.8-1l-.051-.042c-.1-.079-.189-.158-.276-.237-.047-.043-.093-.086-.135-.129-.441-.445-.891-.9-1.326-1.331l-.025-.025-.056-.056c-.388-.388-.789-.79-1.181-1.187a1.33 1.33.0 01-.463-.913.866.866.0 01.212-.549l.015-.018.014-.016.015-.016.019-.02a1.206 1.206.0 01.123-.11.829.829.0 01.675-.179 1.292 1.292.0 01.594.3q.078.064.155.14c.6.6 1.256 1.253 1.937 1.935q1.21 1.211 2.416 2.426l.2.206.02.02.071.075a1.315 1.315.0 01.35.595.764.764.0 01.018.157.752.752.0 01-.012.143 1.143 1.143.0 01-.242.493v.006a2.562 2.562.0 01-.191.214q-1.8 1.814-3.606 3.618l-.966.969a1.235 1.235.0 01-.888.443A.954.954.0 0128.945 35.666zM14.4 35.92l-.006-.005-.053-.051q-.837-.841-1.676-1.681l-.031-.031-.007-.006c-.913-.915-1.948-1.951-2.945-2.962l-.023-.024-.012-.012q-.048-.051-.09-.1h0a1.019 1.019.0 01-.276-.655.783.783.0 01.027-.2 1.41 1.41.0 01.388-.6l.487-.491.225-.227.267-.269.386-.388.169-.17.391-.393.262-.263.229-.229.494-.495h0q.89-.891 1.753-1.749a1.591 1.591.0 01.3-.24h.008a.9.9.0 011.146.129l.019.018.016.016.017.018h0a.921.921.0 01.257.546h0c0 .022.0.045.0.068v.005s0 .008.0.013.0.012.0.018.0.0.0.006a1.224 1.224.0 01-.4.8q-.853.865-1.709 1.726l-.017.016-.173.174-.172.172-.033.033-.208.208-.012.012-.223.222-.008.008-.225.223-.01.01-.223.22-.015.014-.219.215-.019.019-.216.212-.018.017-.223.217c-.153.149-.225.263-.224.375s.084.234.237.384c1.253 1.224 2.49 2.467 3.718 3.717a1.2 1.2.0 01.376.83.925.925.0 01-.685.885 2.068 2.068.0 01-.261.057A1.182 1.182.0 0114.4 35.92zM36.155 16.663h0a.983.983.0 01-.914-.787.95.95.0 01-.019-.192c0-.008.0-.016.0-.025.0-.028.0-.055.006-.082a.982.982.0 01.669-.821.953.953.0 01.3-.048h.012a.981.981.0 01.964.973c0 .023.0.046.0.068a.143.143.0 010 .014s0 .007.0.011v.009c0 .006.0.011.0.017v0a.988.988.0 01-.967.857zm2.987-.842a.943.943.0 01-.01-.132c0-.008.0-.017.0-.025a.98.98.0 01.328-.707.965.965.0 01.645-.249h.008a.98.98.0 01.969.967h0c0 .008.0.017.0.025a.962.962.0 01-.179.546l-.011.015-.01.013-.005.007-.009.011-.006.008-.008.009-.008.01-.006.007-.01.012-.013.013-.014.015h0a.969.969.0 01-.659.283H40.1A.976.976.0 0139.142 15.821zm-6.865.842a.98.98.0 01-.969-.966.961.961.0 01.125-.49l.009-.015A.99.99.0 0131.7 14.9h.006l.01-.007a.952.952.0 01.563-.183h.037a.952.952.0 01.236.039.988.988.0 01.707.932c0 .008.0.016.0.025a.985.985.0 01-.922.957h-.055zM18.747 5.882c-.7.0-1.13-.385-1.134-.968.0-.009.0-.019.0-.028.01-.6.442-.959 1.165-.963 1.24.0 2.481.0 3.721.0s2.481.0 3.722.0c.723.0 1.157.37 1.167.964.0.009.0.019.0.028.0.581-.438.965-1.136.966q-1.877.0-3.752.0T18.747 5.882zm11.571.0A.977.977.0 1131.3 4.865c0 .009.0.017.0.026a.987.987.0 01-.976.99z" fill="#050748" stroke="rgba(0,0,0,0)" stroke-miterlimit="10" stroke-width="1"/></g></svg>