<svg xmlns="http://www.w3.org/2000/svg" width="72.4" height="86" viewBox="0 0 72.4 86"><g id="organized" transform="translate(-6.7)"><path id="Path_45386" data-name="Path 45386" d="M77.9 13.4a4.133 4.133.0 00-5.9-.1 7.993 7.993.0 00-1.3 1.3c-.1.4-.3.4-.7.1a7.217 7.217.0 00-2.4-1.4 1.506 1.506.0 01-1.2-2v-.1a4.152 4.152.0 00-4.5-4.5H50.4c-1.1.0-1.1.0-1.1-1.1a5.33 5.33.0 00-1.8-4.3A7.07 7.07.0 0044.9.0H28.6A5.246 5.246.0 0024 5V6.5H19.3c-2.8.0-5.6-.1-8.4.0a4.455 4.455.0 00-4.2 4.3V81.5c0 2.5 1.1 4 3.5 4.5H63c2.7-.9 3.5-2.1 3.5-5V43.6a1.165 1.165.0 01.8-1.2 15.545 15.545.0 009.5-13.7c.1-1.1-.2-1.4-1.2-1.7h-.4q-1.05.0-1.2 1.5a13.435 13.435.0 01-1.6 5.6 12.956 12.956.0 01-4 4.6c-.1.1-.3.2-.4.3-.3.2-.6.3-.9.5-.3.1-.5.3-.8.4-.2.1-.5.2-.7.3-.3.1-.7.2-1 .3-.2.1-.4.1-.6.2a5.019 5.019.0 01-1.2.2c-.2.0-.4.1-.6.1a7.569 7.569.0 01-1.5.1h-.2a10.869 10.869.0 01-1.8-.1h-.1a4.331 4.331.0 01-.5-.1c-.2.0-.3-.1-.5-.1-.1.0-.1.0-.2-.1a4.418 4.418.0 01-1.6-.6 12.294 12.294.0 01-2.5-1.4c-.1.0-.1-.1-.2-.2a13.054 13.054.0 01-5.3-13.3A13 13 0 0158.1 14.7a9.863 9.863.0 012.4-.3 12.862 12.862.0 017 1.8c.8.5.8.6.1 1.2l-6.8 6.8c-.9.9-.9.9-1.7.0a32.356 32.356.0 00-3.8-3.6 4.285 4.285.0 00-6.1 1.3 4.726 4.726.0 00-.7 2.2 4.122 4.122.0 001.4 3.3c2.2 2.3 4.5 4.4 6.7 6.7a4.185 4.185.0 001.8 1.1 3.973 3.973.0 002.4.2 5.038 5.038.0 002.5-1.3c1.9-2.1 4-4.1 6-6.1l.1-.1s7.3-7.6 8.5-8.7A4.1 4.1.0 0077.9 13.4zM63.5 12a19.723 19.723.0 00-4.2-.2 15.981 15.981.0 00-8.5 3.5c-5.2 4.4-7.2 10-5.5 16.5C47 38.2 51.4 42.1 58 43.5c.3.1.7.1 1 .2a17 17 0 004.5-.2c.3-.1.5.0.5.4V81.1c0 1.9-.5 2.4-2.4 2.4H11.9c-1.8.0-2.3-.5-2.3-2.3V11.6c0-1.8.5-2.3 2.3-2.3H24.2v1.8a2.914 2.914.0 003 3.1H46.3a2.924 2.924.0 003-2.9c0-.6.1-1.3.1-1.9.2-.3.5-.1.8-.1H61.9q2.25.0 2.1 2.4C64 12 63.8 12.1 63.5 12zm2.7 3.5c.2.1.3.1.4.2C66.5 15.6 66.3 15.6 66.2 15.5zm.7.3a2.506 2.506.0 01.7.4c.1.1.2.1.3.2C67.6 16.2 67.2 16 66.9 15.8zm1 .6.3.3zm8.2 1c-.7.8-1.5 1.5-2.2 2.3L61.3 32.3a1.633 1.633.0 01-2.7.0c-2.3-2.3-4.6-4.5-6.8-6.8a1.593 1.593.0 112.3-2.2c1.6 1.5 3.1 3.1 4.6 4.6 1 1 1.5 1 2.5.0 4.2-4.2 8.3-8.3 12.4-12.5.9-.9 1.3-1 2.3-.5A1.551 1.551.0 0176.1 17.4z" fill="#05d691"/><path id="Path_45387" data-name="Path 45387" d="M36.2 52.7h-10a1.612 1.612.0 00-1.3.6 1.213 1.213.0 00-.1 1.3 1.419 1.419.0 001.4.8h9.9a1.6 1.6.0 001.1-.4 1.231 1.231.0 00.5-1C37.7 53.2 37.2 52.7 36.2 52.7z" fill="#05d691"/><path id="Path_45388" data-name="Path 45388" d="M26.3 62.3c-1 0-1.6.4-1.6 1.2a1.389 1.389.0 00.5 1 1.5 1.5.0 001.1.4H41.2a1.268 1.268.0 00.6-.1 1.12 1.12.0 00.8-.7.9.9.0 00.1-.5c0-.8-.5-1.3-1.5-1.3H26.3z" fill="#05d691"/><path id="Path_45389" data-name="Path 45389" d="M9.8 78.6H9.6c.1.1.1.1.2.1z" fill="#05d691"/><path id="Path_45390" data-name="Path 45390" d="M17.8 46a5.188 5.188.0 00-5.1 5.1 5.121 5.121.0 005.1 5.1 5.188 5.188.0 005.1-5.1A5.121 5.121.0 0017.8 46z" fill="#05d691"/><path id="Path_45391" data-name="Path 45391" d="M17.8 30.6a5.037 5.037.0 00-5 5.1 5.1 5.1.0 0010.2.0 5.207 5.207.0 00-5.2-5.1z" fill="#05d691"/><path id="Path_45392" data-name="Path 45392" d="M17.8 61.4a5.188 5.188.0 00-5.1 5.1 5.05 5.05.0 1010.1.0 4.974 4.974.0 00-5-5.1z" fill="#05d691"/><path id="Path_45393" data-name="Path 45393" d="M46.8 68.1H26.3c-1 0-1.6.5-1.6 1.3s.7 1.3 1.7 1.3H46.7A1.321 1.321.0 0048 69.4 1.3 1.3.0 0046.8 68.1z" fill="#05d691"/><path id="Path_45394" data-name="Path 45394" d="M26.2 46.9a1.313 1.313.0 100 2.6H46.1a3.4 3.4.0 001-.1 1.176 1.176.0 00.9-1.2 1.352 1.352.0 00-.9-1.2 3.4 3.4.0 00-1-.1H26.2z" fill="#05d691"/><path id="Path_45395" data-name="Path 45395" d="M26.2 34.2H41a2.769 2.769.0 00.9-.1 1.206 1.206.0 00.8-1.2 1.371 1.371.0 00-1.1-1.2 2.769 2.769.0 00-.9-.1H26.2a1.378 1.378.0 00-1.5 1.3 1.321 1.321.0 001.5 1.3z" fill="#05d691"/><path id="Path_45396" data-name="Path 45396" d="M41.9 37.6a2.769 2.769.0 00-.9-.1H26.4a2.769 2.769.0 00-.9.1 1.441 1.441.0 00-.8 1.3 1.272 1.272.0 001 1.1h.4c.2.0.5.1.7.1H40.9a2.769 2.769.0 00.9-.1 1.088 1.088.0 00.9-1.1A1.34 1.34.0 0041.9 37.6z" fill="#05d691"/><path id="Path_45397" data-name="Path 45397" d="M23.4 18.7H15.3A1.288 1.288.0 0013.9 20a1.272 1.272.0 001.4 1.2h8.2a1.238 1.238.0 001.4-1.3C24.9 19.1 24.3 18.7 23.4 18.7z" fill="#05d691"/></g></svg>