<svg xmlns="http://www.w3.org/2000/svg" width="97" height="86.006" viewBox="0 0 97 86.006"><g id="quality_Growth" data-name="quality &amp; Growth" transform="translate(-700 -3829.81)"><g id="quality" transform="translate(700 3829.817)"><path id="Path_45367" data-name="Path 45367" d="M93.8 32.2c0 1.2.5 1.7 1.7 1.8a1.5 1.5.0 001.4-1V5.6a5.576 5.576.0 00-1-2.8A7.156 7.156.0 0090 0H6.9Q1.35.0.0 5.4S.1 62 .2 62.1a6.485 6.485.0 006.7 5.1h9.7A1.88 1.88.0 0018.5 66a.749.749.0 00.1-.5A1.453 1.453.0 0017.2 64 4.819 4.819.0 0016 64H6.4a3.531 3.531.0 01-3.2-3.7V57.8C3.2 56 3.2 56 5 56H92.8c.7.0 1 .3 1 1v3.8a3.313 3.313.0 01-3.5 3.3H23.7c-1.3.2-1.8.8-1.5 2a1.589 1.589.0 00.8 1h0a1.8 1.8.0 001 .2H37.5c.6.0.8.0.7.8-.5 2.5-.9 4.9-1.3 7.3-.1.6-.3.9-1 .9A6.3 6.3.0 0030 81c-.9 3 .9 5 3.8 5 8.1-.1 16.3.0 24.4.0h6a3.169 3.169.0 002.9-3.5 6.241 6.241.0 00-6-6.1c-.8.0-1-.4-1.1-1l-1.2-7.2c-.1-.8.1-.8.7-.8H90.2a6.453 6.453.0 006.5-5c.1-.1.2-23.8.2-23.8a1.5 1.5.0 00-1.6-1.2 1.964 1.964.0 00-1.3.9 4.146 4.146.0 00-.3 1.6V51.4c0 1.1-.1 1.2-1.2 1.2H4.8c-.5.0-1 .2-1.4-.3a2.622 2.622.0 01-.2-1.5V6.6a3.408 3.408.0 013-3.1 9.652 9.652.0 011.7.0H89.8c2.6.0 3.9 1.3 3.9 4V28.7C93.8 29.8 93.8 31 93.8 32.2zM56.3 76.1a8.6 8.6.0 00-1.6-.1c-4.8.0-9.7.0-14.5.1-.4.0-.5-.1-.4-.6.5-2.7.9-5.3 1.4-8 .1-.4.3-.4.6-.4H53.3c2.6-.1 2.6-.1 3 2.3.3 1.8.6 3.7 1 5.5C57.3 75.8 57.3 76.3 56.3 76.1zM60.5 79a3.682 3.682.0 013.8 3c.1.7-.1 1-.8 1a14.769 14.769.0 01-2.1-.1c-.3.0-.6.1-.9.1H34c-1.3.0-1.6-.3-1.1-1.6a3.081 3.081.0 012.7-2.3 1.412 1.412.0 01.9-.1z" fill="#9e6dfd"/><path id="Path_41555" d="M97 38.5a2.122 2.122.0 00-1.3-1 4.756 4.756.0 01.1-3.7c.6.0.8-.5 1.2-.8z" fill="#9e6dfd"/><path id="Path_45368" data-name="Path 45368" d="M88.1 64.1h1a1.645 1.645.0 01-1 .2H24.6a3.75 3.75.0 00-1.1.1c-1 .2-.5 1.7-.5 2.7h0a1.375 1.375.0 01-.8-1c-.3-1.2.2-1.8 1.5-2H88.1z" fill="#9e6dfd"/><path id="Path_45369" data-name="Path 45369" d="M90.5 56H5c-1.9.0-1.9.0-1.9 1.9v2.5A3.379 3.379.0 006.3 64H17.1a1.453 1.453.0 011.4 1.5.9.9.0 01-.1.5 1.757 1.757.0 01-.9 1c-.1-1.3.4-2.7-1-2.7H6.7a3.682 3.682.0 01-4-3.2v-5c0-.5.1-.7.6-.6H89.1a3.75 3.75.0 011.1.1C90.4 55.7 90.5 55.8 90.5 56z" fill="#9e6dfd"/><rect id="Rectangle_3245" data-name="Rectangle 3245" width="17.1" height="3.1" transform="translate(11.9 64.1)" fill="#9e6dfd"/><rect id="Rectangle_3246" data-name="Rectangle 3246" width="17.1" height="3.1" transform="translate(93.819 46.958) rotate(-90)" fill="#9e6dfd"/><g id="Group_47447" data-name="Group 47447"><g id="Group_47446" data-name="Group 47446"><path id="Path_45370" data-name="Path 45370" d="M38.3 23.5a12.158 12.158.0 00-2.5-7.3 11.845 11.845.0 00-6.4-4.3 12.016 12.016.0 00-7.7.5 12.015 12.015.0 00-7.4 12.5 12.091 12.091.0 003.3 6.9L14.4 38l5.2.5L23 42.4l2.7-5.2 2.7 7.1 3.7-3.9 5.4.5-3.2-8.6a12.841 12.841.0 002.9-4 11.255 11.255.0 001.1-4.8zM26.3 13a10.2 10.2.0 017.4 3.1 10.54 10.54.0 013.1 7.4 10.2 10.2.0 01-3.1 7.4A10.54 10.54.0 0126.3 34a10.366 10.366.0 01-7.4-3.1 10.54 10.54.0 01-3.1-7.4A10.585 10.585.0 0126.3 13z" fill="#9e6dfd"/><path id="Path_45371" data-name="Path 45371" d="M26.3 33.4a9.9 9.9.0 10-7-2.9 9.837 9.837.0 007 2.9zM24 20.3l2.3-3.6 2.3 3.6 4.1 1L30 24.6l.3 4.2-3.9-1.6-3.9 1.6.3-4.2L20 21.3z" fill="#9e6dfd"/></g><path id="Path_45372" data-name="Path 45372" d="M58.3 32.6v9.3A1.032 1.032.0 0157.2 43H52.6a1.032 1.032.0 01-1.1-1.1V32.6a1.032 1.032.0 011.1-1.1h4.6a1.032 1.032.0 011.1 1.1zm6.9-5.8H60.6a1.032 1.032.0 00-1.1 1.1V41.8a1.032 1.032.0 001.1 1.1h4.6a1.032 1.032.0 001.1-1.1V28a1.135 1.135.0 00-.3-.8A.909.909.0 0065.2 26.8zM73.4 21H68.8a1.032 1.032.0 00-1.1 1.1V41.8a1.032 1.032.0 001.1 1.1h4.6a1.032 1.032.0 001.1-1.1V22.2a1.135 1.135.0 00-.3-.8A.91.91.0 0073.4 21zm8.1-8.1H76.9A1.032 1.032.0 0075.8 14V41.8a1.032 1.032.0 001.1 1.1h4.6a1.032 1.032.0 001.1-1.1V14a1.032 1.032.0 00-1.1-1.1zM68.7 18.7V14a1.032 1.032.0 00-1.1-1.1H63a1.1 1.1.0 00-1 .6 1.275 1.275.0 000 1.2 1.1 1.1.0 001 .6h1.8L54.6 25.4A1.132 1.132.0 0056.2 27L66.4 16.8v1.8a1.1 1.1.0 00.6 1 1.275 1.275.0 001.2.0.874.874.0 00.5-.9z" fill="#9e6dfd"/></g></g><path id="Path_45373" data-name="Path 45373" d="M2112.746 3883.939h-92.439v6.9l1.515 3.7 12.46 1.01h74.927l3.536-2.863z" transform="translate(-1318)" fill="#9e6dfd"/></g></svg>