<svg xmlns="http://www.w3.org/2000/svg" width="55.057" height="55.046" viewBox="0 0 55.057 55.046"><path d="M4.509 36.428 1.789 38l3.8 6.573L8.313 43a25 25 0 003.738 3.738l-1.574 2.725 6.573 3.8 1.569-2.72a24.783 24.783.0 005.109 1.371v3.138h3.8V45.561a18.035 18.035.0 010-36.07V0h-3.8V3.138a24.782 24.782.0 00-5.109 1.371l-1.569-2.72-6.573 3.8 1.574 2.725a25 25 0 00-3.738 3.738L5.588 10.476l-3.8 6.573 2.72 1.569a24.782 24.782.0 00-1.371 5.109H0v7.6H3.138a24.639 24.639.0 001.371 5.101z" fill="#050748"/><path d="M52.613 38.376a14.971 14.971.0 00-.226-2.532 14.24 14.24.0 00-28.027.011 14.841 14.841.0 00-.22 2.527 14.236 14.236.0 1028.473-.006zM38.376 50.713A12.352 12.352.0 0126.039 38.376a13.17 13.17.0 01.193-2.2c.077-.418.176-.831.292-1.233a18.939 18.939.0 0123.705.0c.116.4.215.8.292 1.222a13.285 13.285.0 01.193 2.2A12.35 12.35.0 0138.376 50.713z" transform="translate(-10.851 -10.851)" fill="#050748"/><path d="M57.239 48.449a1.9 1.9.0 01-1.9-1.9h-1.9a3.8 3.8.0 107.6.0h-1.9A1.9 1.9.0 0157.239 48.449z" transform="translate(-24.021 -20.924)" fill="#050748"/><path d="M40.347 46.55h-1.9a1.9 1.9.0 11-3.8.0h-1.9a3.8 3.8.0 007.6.0z" transform="translate(-14.721 -20.924)" fill="#050748"/><path d="M45.3 63.583a4.765 4.765.0 01-4.112-2.373l-1.641.952a6.645 6.645.0 0011.506.0l-1.641-.952A4.765 4.765.0 0145.3 63.583z" transform="translate(-17.777 -27.513)" fill="#050748"/><path d="M58.2 52.661H62a1.9 1.9.0 001.9-1.9h.947a8.552 8.552.0 008.544-8.544V39.372H75.63c1.9.0 3.452-1.91 3.452-4.272V26.561c0-2.356-1.547-4.272-3.452-4.272h-.352A23.718 23.718.0 0053.45 5.24V9.947A18.979 18.979.0 0171.237 22.284H69.586V39.366h1.9v2.846a6.649 6.649.0 01-6.645 6.645h-.947a1.9 1.9.0 00-1.9-1.9H58.2a1.9 1.9.0 00-1.9 1.9v1.9a1.9 1.9.0 001.9 1.904zM72.432 25.136h1.9v11.39h-1.9z" transform="translate(-24.025 -2.355)" fill="#050748"/></svg>