<svg xmlns="http://www.w3.org/2000/svg" width="87.628" height="85.57" viewBox="0 0 87.628 85.57"><g id="there_for_support" data-name="there for support" transform="translate(-1415.342 -396.382)"><path id="Path_45422" data-name="Path 45422" d="M1502.94 441.835a8.846 8.846.0 00-4.835-8.1.967.967.0 01-.583-.933 36.1 36.1.0 00-.886-6.554 38.432 38.432.0 00-75.837 6.465 1.107 1.107.0 01-.662 1.061 8.711 8.711.0 00-4.648 6.666 53.905 53.905.0 00-.114 5.819c0 2.286-.04 4.03.007 5.775a9.03 9.03.0 006.157 8.359c5.323 1.78 8.926-1.775 8.746-6.178-.205-5.11-.04-10.234-.051-15.352a5.73 5.73.0 00-4.7-6.036c-.385-.1-.576-.184-.529-.669a38.3 38.3.0 011.185-6.591 34.24 34.24.0 0167.109 6.58c.042.469-.11.578-.511.681a5.722 5.722.0 00-4.7 6.029q-.014 7.9.0 15.792a5.753 5.753.0 004.763 6.076c.411.1.571.208.56.653-.037 1.339.007 2.678-.033 4.014a8.425 8.425.0 01-7.193 7.991c-2.4.32-4.821.065-7.233.149-.459.014-.473-.327-.609-.595a5.943 5.943.0 00-5.248-3.61c-2.437-.11-4.889-.131-7.323-.007a6.214 6.214.0 00-5.98 6.437 6.291 6.291.0 006.37 6.171q3.184.038 6.37.0a6.158 6.158.0 005.782-3.641.911.911.0 01.982-.585c1.92.021 3.839.035 5.759.0a12.687 12.687.0 0012.366-10.692 42.6 42.6.0 00.154-6.269.944.944.0 01.546-.952 8.892 8.892.0 004.83-8.189C1502.973 448.347 1502.984 445.091 1502.94 441.835zm-76.9-3.1c.016 2.671.0 5.343.0 8.014.0 2.643.007 5.285.0 7.928.0 1.469-.653 2.062-2.1 1.966a4.775 4.775.0 01-4.369-4.625c-.063-3.485-.058-6.969.0-10.454a4.787 4.787.0 014.5-4.676A1.649 1.649.0 011426.042 438.735zm46.545 39.013c-.058.0-.117.0-.173.0h-3.048c-1.073.0-2.148.016-3.221-.007a2.11 2.11.0 01-2.172-2.127 2.052 2.052.0 012.073-2.12q3.306-.07 6.615.0a2.045 2.045.0 012.073 2.2A2.1 2.1.0 011472.587 477.748zm26.146-25.691a4.754 4.754.0 01-4.49 4.592 1.659 1.659.0 01-1.975-1.84V446.8c0-2.643-.007-5.285.0-7.928.007-1.5.683-2.094 2.183-1.969a4.788 4.788.0 014.285 4.618C1498.8 445.03 1498.809 448.547 1498.733 452.057z" transform="translate(0)" fill="#f19722"/><path id="Path_45423" data-name="Path 45423" d="M1552.51 551.659a3.082 3.082.0 11-3.132-3.062A3.1 3.1.0 011552.51 551.659z" transform="translate(-100.45 -116.712)" fill="#f19722"/><path id="Path_45424" data-name="Path 45424" d="M1596.112 551.734a3.1 3.1.0 11-3.086-3.135A3.155 3.155.0 011596.112 551.734z" transform="translate(-133.853 -116.715)" fill="#f19722"/><path id="Path_45425" data-name="Path 45425" d="M1639.8 551.665a3.081 3.081.0 11-6.162.016 3.081 3.081.0 016.162-.016z" transform="translate(-167.383 -116.713)" fill="#f19722"/><path id="Path_45426" data-name="Path 45426" d="M1551.751 492.931c-.019-5.532-3.8-9.294-9.327-9.3q-6.546-.011-13.089.0c-4.42.0-8.842-.012-13.262.0a8.808 8.808.0 00-9.185 8.994c-.077 5.933-.061 11.867.0 17.8a8.87 8.87.0 006.988 8.84c.674.159 1.637-.168 1.964.469.294.578.054 1.423.07 2.15a19.3 19.3.0 00.084 2.96 4.146 4.146.0 002.888 3.405 4.025 4.025.0 004.35-.961q3.687-3.593 7.307-7.254a1.737 1.737.0 011.362-.576c3.489.026 6.981.016 10.47.012 5.57-.007 9.371-3.781 9.385-9.348Q1551.775 501.524 1551.751 492.931zm-4.184 17.206c-.007 3.219-1.945 5.141-5.168 5.143-3.867.0-7.734.021-11.6-.012a3.089 3.089.0 00-2.4.977c-2.512 2.547-5.061 5.054-7.6 7.568-.166.163-.3.515-.6.355-.224-.119-.093-.424-.093-.644-.009-1.948.0-3.9-.007-5.845-.009-1.633-.767-2.372-2.4-2.4a16.078 16.078.0 01-2.782-.1 4.625 4.625.0 01-3.783-4.019 6.781 6.781.0 01-.058-.781c0-5.9-.026-11.8.009-17.7a4.638 4.638.0 014.91-4.849c4.448-.016 8.9.0 13.346.0q6.539.0 13.082.0c3.235.0 5.152 1.906 5.157 5.141Q1547.577 501.549 1547.567 510.136z" transform="translate(-70.154 -66.893)" fill="#f19722"/><path id="Path_45427" data-name="Path 45427" d="M1552.51 551.659a3.082 3.082.0 11-3.132-3.062A3.1 3.1.0 011552.51 551.659z" transform="translate(-100.45 -116.712)" fill="#f19722"/><path id="Path_45428" data-name="Path 45428" d="M1596.112 551.734a3.1 3.1.0 11-3.086-3.135A3.155 3.155.0 011596.112 551.734z" transform="translate(-133.853 -116.715)" fill="#f19722"/><path id="Path_45429" data-name="Path 45429" d="M1639.8 551.665a3.081 3.081.0 11-6.162.016 3.081 3.081.0 016.162-.016z" transform="translate(-167.383 -116.713)" fill="#f19722"/><path id="Path_45430" data-name="Path 45430" d="M1552.51 551.659a3.082 3.082.0 11-3.132-3.062A3.1 3.1.0 011552.51 551.659z" transform="translate(-100.45 -116.712)" fill="#f19722"/><path id="Path_45431" data-name="Path 45431" d="M1596.112 551.734a3.1 3.1.0 11-3.086-3.135A3.155 3.155.0 011596.112 551.734z" transform="translate(-133.853 -116.715)" fill="#f19722"/><path id="Path_45432" data-name="Path 45432" d="M1639.8 551.665a3.081 3.081.0 11-6.162.016 3.081 3.081.0 016.162-.016z" transform="translate(-167.383 -116.713)" fill="#f19722"/></g></svg>