<svg xmlns="http://www.w3.org/2000/svg" width="52.194" height="54" viewBox="0 0 52.194 54"><g transform="translate(0 -0.07)"><rect width="10.799" height="9.901" transform="translate(37.799 44.169)" fill="#050748"/><path d="M49.177 9.971v3.6h1.8v-3.6a9.9 9.9.0 00-19.8.0v35.1a7.2 7.2.0 11-14.395.0v-3.6h-1.8v3.6a9 9 0 1018 0V9.971a8.1 8.1.0 1116.2.0z" transform="translate(-6.879)" fill="#050748"/><rect width="2.698" height="22.495" transform="translate(9.901 0.07)" fill="#050748"/><path d="M17.926 45.01H.93l4.5 8.1h8z" transform="translate(-0.427 -20.638)" fill="#050748"/><rect width="3.601" height="22.495" transform="translate(14.4 0.07)" fill="#050748"/><rect width="2.698" height="22.495" transform="translate(5.402 0.07)" fill="#050748"/><path d="M17.1 63.31h-6l3 5.4z" transform="translate(-5.098 -29.043)" fill="#050748"/><rect width="3.601" height="22.495" transform="translate(0 0.07)" fill="#050748"/><path d="M73.136 28.37V38.855a1.8 1.8.0 11-2.46.66 1.756 1.756.0 01.66-.66V28.37a.409.409.0 00-.059.076L63.24 40.964l4.5 14.4h9l4.5-14.06L73.2 28.44A.833.833.0 0073.136 28.37z" transform="translate(-29.043 -12.997)" fill="#050748"/></g></svg>