<svg xmlns="http://www.w3.org/2000/svg" width="51" height="56.765" viewBox="0 0 51 56.765"><g transform="translate(0.5 0.5)"><path d="M15.414 55.762A1.11 1.11.0 0114.2 54.493a5.451 5.451.0 014.909-5.24c.4-.045.457-.179.442-.521a15.247 15.247.0 010-1.69c.024-.389-.1-.473-.479-.473q-6.738.021-13.475.007A5.464 5.464.0 01.162 42.4 6.306 6.306.0 010 40.836q.006-13.476.0-26.95a5.46 5.46.0 015.7-5.738c.737-.006.737-.006.737-.751.0-2.037.012-4.074-.009-6.11A1.493 1.493.0 016.986.0H43a1.361 1.361.0 01.563 1.222c-.017 2.036-.008 4.073-.008 6.109.0.807.0.812.788.817A5.4 5.4.0 0149.5 11.333a5.7 5.7.0 01.5 2.6q-.013 11.294-.005 22.586c0 1.473.006 2.945.0 4.418a5.46 5.46.0 01-5.634 5.644c-.726.0-1.454.008-2.182.0a1.132 1.132.0 01-1.239-1.1A1.111 1.111.0 0142.177 44.4c.363.0.727.0 1.091.0.4.0.8.0 1.2.0a3.272 3.272.0 003.343-3.347c.007-.527-.01-1.056.007-1.583.006-.234-.062-.34-.305-.308a1.943 1.943.0 01-.273.0q-22.23.0-44.463-.014c-.514.0-.638.147-.6.624.046.6-.035 1.208.047 1.8a3.262 3.262.0 003.29 2.826c1.128.014 2.256.0 3.382.0H32.954c.182.0.364-.006.546.0a1.085 1.085.0 11.018 2.169c-.872.028-1.746.026-2.618.0-.361-.01-.469.094-.45.452.03.581.026 1.165.0 1.745-.014.333.064.444.43.483A5.437 5.437.0 0135.8 54.526a1.085 1.085.0 01-1.186 1.236q-4.8.0-9.6.0t-9.6.0zm4.035-4.349a3.026 3.026.0 00-2.817 2.161H33.4a3.093 3.093.0 00-2.835-2.161q-2.8-.019-5.6-.019Q22.209 51.393 19.45 51.413zm2.27-4.528c.015.653.02 1.308.0 1.962-.01.292.091.368.371.362.964-.015 1.926.0 2.89.0.98.0 1.961-.006 2.941.0.236.0.367-.029.36-.316-.019-.672-.017-1.344.0-2.016.006-.244-.081-.3-.312-.3q-2.971.011-5.94.0C21.792 46.573 21.716 46.647 21.72 46.884zm25.568-9.9c.434.014.536-.113.534-.537-.017-3.817-.01-7.633-.01-11.45.0-3.78.007-7.56.0-11.34a3.236 3.236.0 00-2.485-3.232 7.664 7.664.0 00-1.355-.092c-.34-.028-.421.091-.421.424q.013 12.9.0 25.789c0 .385.141.44.471.435.581-.01 1.162-.017 1.743-.017C46.27 36.964 46.779 36.97 47.288 36.985zm-41.37.0c.43.013.536-.109.534-.536-.016-4.455-.011-8.912-.01-13.368a3.128 3.128.0 01.016-.545 1.086 1.086.0 011.972-.464 1.425 1.425.0 01.2.887c0 4.494.0 8.986-.01 13.478.0.4.069.549.521.548q15.851-.021 31.7.0c.415.0.543-.088.542-.527q-.021-13.4.0-26.791c0-.445-.134-.522-.54-.52q-7.912.02-15.824.008c-5.292.0-10.585.007-15.879-.011-.438.0-.531.124-.523.539.025 1.437.013 2.873.008 4.311.0.778-.452 1.286-1.108 1.273a1.136 1.136.0 01-1.071-1.258c-.006-.927.0-1.855.0-2.783.0-.9.0-.9-.922-.884a3.234 3.234.0 00-3.329 3.238c-.013 7.657.0 15.314-.016 22.97.0.388.14.438.469.434.581-.01 1.162-.017 1.744-.017C4.9 36.964 5.408 36.97 5.918 36.985zm2.7-34.492c.017 1.309.029 2.618.0 3.925-.011.455.107.565.562.564 5.29-.018 10.579-.011 15.871-.011q7.906.0 15.816.008c.382.0.533-.056.522-.491-.033-1.326-.019-2.654-.007-3.98.0-.3-.017-.444-.392-.444q-15.979.019-31.958.0h0C8.673 2.064 8.613 2.173 8.617 2.493zM37.552 46.575A1.124 1.124.0 0136.463 45.5a1.087 1.087.0 011.1-1.1 1.066 1.066.0 011.079 1.057 1.1 1.1.0 01-1.084 1.116zM25 42.863a1.125 1.125.0 01-1.089-1.126 1.088 1.088.0 011.1-1.047 1.066 1.066.0 011.08 1.056 1.106 1.106.0 01-1.083 1.118zm-2.1-13.671h-.02a1.115 1.115.0 01-.36-.07l-.063-.025a1.016 1.016.0 01-.642-.977 1.576 1.576.0 01.146-.637q2.04-4.6 4.09-9.186.016-.037.034-.072h0l.02-.039a1.2 1.2.0 011.012-.689h.033a1.02 1.02.0 01.7.3q.038.037.075.079a1.017 1.017.0 01.256.675c0 .008.0.017.0.025s0 .031.0.046a1.547 1.547.0 01-.173.633Q26 23.8 23.979 28.344q-.02.046-.042.089a1.191 1.191.0 01-1 .759zm8.739-.011h-.05a1.1 1.1.0 01-1.009-1.057 1.315 1.315.0 01.431-.9c1.2-1.213 2.407-2.425 3.627-3.62.125-.122.194-.215.2-.312s-.057-.185-.183-.308c-1.223-1.193-2.426-2.407-3.629-3.619a1.287 1.287.0 01-.44-.9 1.067 1.067.0 01.18-.57c.016-.024.032-.048.049-.071l.02-.026a1.084 1.084.0 01.813-.42h.058a1.041 1.041.0 01.71.308c1.637 1.6 3.246 3.228 4.862 4.85a.954.954.0 01.288.689q0 .027.0.054c0 .022.0.044.0.065a1.121 1.121.0 01-.387.8c-1.543 1.542-3.08 3.088-4.628 4.623-.021.021-.042.041-.064.06l-.006.005-.054.046a1.265 1.265.0 01-.726.3h-.058zm-13.3.0h-.013a1.183 1.183.0 01-.751-.293l-.029-.025-.034-.032c-.89-.858-1.752-1.742-2.627-2.617-.681-.681-1.367-1.358-2.042-2.044a1.088 1.088.0 01.005-1.755q2.284-2.3 4.588-4.59l.028-.028.052-.048a1.275 1.275.0 01.8-.361h.053a1.137 1.137.0 011.042 1.058 1.351 1.351.0 01-.455.942c-1.295 1.3-2.6 2.592-3.92 3.907 1.325 1.321 2.622 2.615 3.924 3.908a1.263 1.263.0 01.448.89 1.035 1.035.0 01-.025.227l-.006.026a1.057 1.057.0 01-.967.838h-.067zM7.537 19.522H7.493a1.12 1.12.0 01-1.048-1.108A1.09 1.09.0 017.5 17.346h.08a1.082 1.082.0 011.047 1.069v.028c0 .018.0.037.0.055a1.114 1.114.0 01-1.069 1.026zM31.629 5.6v0c-1.872.0-3.744.009-5.617-.005a1.061 1.061.0 01-1.119-1.028c0-.018.0-.036.0-.054a1.1 1.1.0 011.028-1.075 4.232 4.232.0 01.544-.017H32.68c1.455.0 2.909.0 4.364.0.7.0 1.135.288 1.265.807a1.277 1.277.0 01.04.309A1.093 1.093.0 0137.138 5.6q-1.155.006-2.31.005zm-12.284.0A1.086 1.086.0 0118.27 4.529a1.1 1.1.0 011.107-1.1A1.084 1.084.0 0120.44 4.507 1.066 1.066.0 0119.359 5.6zm-7.985.0a1.089 1.089.0 01-1.086-1.059c0-.009.0-.018.0-.028a1.115 1.115.0 011.1-1.08 1.089 1.089.0 011.075 1.1c0 .01.0.019.0.029A1.063 1.063.0 0111.37 5.6zm2.927-1.049c0-.009.0-.019.0-.029A1.086 1.086.0 0115.366 3.43 1.114 1.114.0 0116.46 4.491c0 .009.0.019.0.028A1.089 1.089.0 0115.366 5.6h0A1.061 1.061.0 0114.287 4.547z" transform="translate(0)" fill="#050748" stroke="rgba(0,0,0,0)" stroke-miterlimit="10" stroke-width="1"/></g></svg>